<svg width="158" height="41" viewBox="0 0 158 41" fill="none" xmlns="http://www.w3.org/2000/svg">
<g filter="url(#filter0_dd_1_2)">
<path d="M4.0875 18C4.0875 15.2533 4.70083 12.8 5.9275 10.64C7.18083 8.45333 8.87417 6.76 11.0075 5.56C13.1675 4.33333 15.5808 3.72 18.2475 3.72C21.3675 3.72 24.1008 4.52 26.4475 6.12C28.7942 7.72 30.4342 9.93333 31.3675 12.76H24.9275C24.2875 11.4267 23.3808 10.4267 22.2075 9.76C21.0608 9.09333 19.7275 8.76 18.2075 8.76C16.5808 8.76 15.1275 9.14667 13.8475 9.92C12.5942 10.6667 11.6075 11.7333 10.8875 13.12C10.1942 14.5067 9.8475 16.1333 9.8475 18C9.8475 19.84 10.1942 21.4667 10.8875 22.88C11.6075 24.2667 12.5942 25.3467 13.8475 26.12C15.1275 26.8667 16.5808 27.24 18.2075 27.24C19.7275 27.24 21.0608 26.9067 22.2075 26.24C23.3808 25.5467 24.2875 24.5333 24.9275 23.2H31.3675C30.4342 26.0533 28.7942 28.28 26.4475 29.88C24.1275 31.4533 21.3942 32.24 18.2475 32.24C15.5808 32.24 13.1675 31.64 11.0075 30.44C8.87417 29.2133 7.18083 27.52 5.9275 25.36C4.70083 23.2 4.0875 20.7467 4.0875 18ZM38.9906 7.2C38.004 7.2 37.1773 6.89333 36.5106 6.28C35.8706 5.64 35.5506 4.85333 35.5506 3.92C35.5506 2.98667 35.8706 2.21333 36.5106 1.6C37.1773 0.959998 38.004 0.639998 38.9906 0.639998C39.9773 0.639998 40.7906 0.959998 41.4306 1.6C42.0973 2.21333 42.4306 2.98667 42.4306 3.92C42.4306 4.85333 42.0973 5.64 41.4306 6.28C40.7906 6.89333 39.9773 7.2 38.9906 7.2ZM41.7506 9.84V32H36.1506V9.84H41.7506ZM59.5634 9.52C62.2034 9.52 64.3368 10.36 65.9634 12.04C67.5901 13.6933 68.4034 16.0133 68.4034 19V32H62.8034V19.76C62.8034 18 62.3634 16.6533 61.4834 15.72C60.6034 14.76 59.4034 14.28 57.8834 14.28C56.3368 14.28 55.1101 14.76 54.2034 15.72C53.3234 16.6533 52.8834 18 52.8834 19.76V32H47.2834V9.84H52.8834V12.6C53.6301 11.64 54.5768 10.8933 55.7234 10.36C56.8968 9.8 58.1768 9.52 59.5634 9.52ZM94.3288 20.44C94.3288 21.24 94.2754 21.96 94.1688 22.6H77.9688C78.1021 24.2 78.6621 25.4533 79.6488 26.36C80.6354 27.2667 81.8488 27.72 83.2888 27.72C85.3688 27.72 86.8488 26.8267 87.7288 25.04H93.7688C93.1288 27.1733 91.9021 28.9333 90.0888 30.32C88.2754 31.68 86.0488 32.36 83.4088 32.36C81.2754 32.36 79.3554 31.8933 77.6488 30.96C75.9688 30 74.6488 28.6533 73.6888 26.92C72.7554 25.1867 72.2887 23.1867 72.2887 20.92C72.2887 18.6267 72.7554 16.6133 73.6888 14.88C74.6221 13.1467 75.9288 11.8133 77.6088 10.88C79.2888 9.94667 81.2221 9.48 83.4088 9.48C85.5154 9.48 87.3954 9.93333 89.0488 10.84C90.7288 11.7467 92.0221 13.04 92.9288 14.72C93.8621 16.3733 94.3288 18.28 94.3288 20.44ZM88.5288 18.84C88.5021 17.4 87.9821 16.2533 86.9688 15.4C85.9554 14.52 84.7154 14.08 83.2488 14.08C81.8621 14.08 80.6888 14.5067 79.7288 15.36C78.7954 16.1867 78.2221 17.3467 78.0088 18.84H88.5288ZM108.576 14.44H104.696V32H99.0163V14.44H96.4963V9.84H99.0163V8.72C99.0163 6 99.7896 4 101.336 2.72C102.883 1.44 105.216 0.839999 108.336 0.92V5.64C106.976 5.61333 106.03 5.84 105.496 6.32C104.963 6.8 104.696 7.66667 104.696 8.92V9.84H108.576V14.44ZM117.805 2.4V32H112.205V2.4H117.805ZM126.178 7.2C125.191 7.2 124.365 6.89333 123.698 6.28C123.058 5.64 122.738 4.85333 122.738 3.92C122.738 2.98667 123.058 2.21333 123.698 1.6C124.365 0.959998 125.191 0.639998 126.178 0.639998C127.165 0.639998 127.978 0.959998 128.618 1.6C129.285 2.21333 129.618 2.98667 129.618 3.92C129.618 4.85333 129.285 5.64 128.618 6.28C127.978 6.89333 127.165 7.2 126.178 7.2ZM128.938 9.84V32H123.338V9.84H128.938ZM146.711 32L142.151 25.12L138.111 32H132.111L139.351 20.88L132.031 9.84H138.351L142.871 16.68L146.951 9.84H152.951L145.671 20.88L153.031 32H146.711Z" fill="#F7F7F7"/>
</g>
<defs>
<filter id="filter0_dd_1_2" x="0.0875015" y="0.639999" width="156.943" height="39.72" filterUnits="userSpaceOnUse" color-interpolation-filters="sRGB">
<feFlood flood-opacity="0" result="BackgroundImageFix"/>
<feColorMatrix in="SourceAlpha" type="matrix" values="0 0 0 0 0 0 0 0 0 0 0 0 0 0 0 0 0 0 127 0" result="hardAlpha"/>
<feOffset dy="4"/>
<feGaussianBlur stdDeviation="2"/>
<feComposite in2="hardAlpha" operator="out"/>
<feColorMatrix type="matrix" values="0 0 0 0 0 0 0 0 0 0 0 0 0 0 0 0 0 0 0.25 0"/>
<feBlend mode="normal" in2="BackgroundImageFix" result="effect1_dropShadow_1_2"/>
<feColorMatrix in="SourceAlpha" type="matrix" values="0 0 0 0 0 0 0 0 0 0 0 0 0 0 0 0 0 0 127 0" result="hardAlpha"/>
<feOffset dy="4"/>
<feGaussianBlur stdDeviation="2"/>
<feComposite in2="hardAlpha" operator="out"/>
<feColorMatrix type="matrix" values="0 0 0 0 0 0 0 0 0 0 0 0 0 0 0 0 0 0 0.25 0"/>
<feBlend mode="normal" in2="effect1_dropShadow_1_2" result="effect2_dropShadow_1_2"/>
<feBlend mode="normal" in="SourceGraphic" in2="effect2_dropShadow_1_2" result="shape"/>
</filter>
</defs>
</svg>
