<svg width="749" height="749" viewBox="0 0 749 749" fill="none" xmlns="http://www.w3.org/2000/svg">
<path d="M0 374.497C0 416.51 6.9179 456.907 19.6768 494.611C20.658 497.51 21.6737 500.394 22.7234 503.261L22.7243 503.264C23.7745 506.132 24.8587 508.983 25.9764 511.818C27.0939 514.651 28.2449 517.468 29.4289 520.268L29.4298 520.27C30.6139 523.07 31.8311 525.852 33.0808 528.616L33.0818 528.618C34.3317 531.383 35.6139 534.129 36.9284 536.857L36.9294 536.859C38.244 539.587 39.5905 542.297 40.9687 544.988L40.9697 544.99C42.3479 547.68 43.7578 550.352 45.1988 553.005L45.1998 553.007C46.6408 555.66 48.113 558.293 49.6156 560.906L49.6166 560.908C51.1195 563.521 52.6528 566.115 54.2163 568.688L54.2173 568.69C55.7809 571.263 57.3744 573.816 58.9978 576.348L58.9988 576.35C60.6222 578.882 62.2751 581.393 63.9573 583.883L63.9583 583.884C65.6405 586.374 67.3517 588.843 69.0917 591.29L69.0928 591.291C136.966 686.736 248.462 748.997 374.5 748.997C581.335 748.997 749 581.33 749 374.497C749 232.303 669.752 108.617 553.012 45.1987L553.011 45.1982C550.358 43.757 547.686 42.3472 544.995 40.9687L544.994 40.9681C493.856 14.7765 435.905 0 374.502 0C306.634 0 242.983 18.0515 188.089 49.615L188.089 49.6154C185.475 51.1183 182.881 52.6519 180.308 54.2156L180.307 54.2159C72.2081 119.899 0 238.766 0 374.497V374.497Z" fill="#E7412C"/>
<path d="M514.961 292.54C514.961 292.54 529.094 254.416 521.612 235.302C514.131 216.179 517.574 192.896 519.122 173.81C521.612 143.059 500.552 112.876 478.015 104.569C457.658 97.0552 401.086 92.1912 386.137 89.0205C355.874 82.6086 292.11 78.3778 267.276 114.79C247.004 144.513 248.986 154.317 236.524 176.296C215.747 212.929 227.177 257.371 239.018 286.161C250.861 314.956 259.798 297.634 259.798 297.634L514.961 292.54V292.54Z" fill="#2A283E"/>
<path d="M630.611 608.897C562.499 598.017 472.35 568.592 458.816 541.581C446.41 516.795 445.993 486.085 447.141 436.847L378.654 458.597L310.161 436.847C311.314 486.085 310.892 516.795 298.481 541.581C284.957 568.592 194.799 598.017 126.686 608.897C113.713 610.969 102.968 615.864 94.0516 622.657C162.663 700.139 262.867 749.001 374.502 749.001C487.85 749.001 589.431 698.638 658.105 619.077C650.274 614.145 641.181 610.585 630.611 608.897Z" fill="#D7E3EB"/>
<path d="M485.163 563.887C471.984 556.556 462.526 548.978 458.818 541.58C448.68 521.331 446.544 497.114 446.734 462.079C438.476 455.432 429.208 449.902 419.18 445.726L378.655 458.596L333.408 444.23C325.271 447.284 317.601 451.217 310.517 455.909C310.973 494.307 309.207 520.161 298.482 541.58C294.09 550.346 281.639 559.358 264.491 567.912C275.578 616.311 320.573 652.533 374.405 652.533C429.72 652.533 475.714 614.29 485.163 563.887V563.887Z" fill="#E18D63"/>
<path d="M455.438 533.919C446.35 510.434 446.107 481.137 447.14 436.846L378.655 458.596L310.162 436.846C310.84 465.844 310.969 488.406 308.427 507.128C340.823 533.539 413.2 582.547 455.438 533.919V533.919Z" fill="#CD7652"/>
<path d="M257.749 292.708C257.749 292.708 250.797 271.086 237.313 278.329C223.834 285.571 230.999 369.504 250.612 379.214C270.225 388.924 275.018 362.703 275.018 362.703L257.749 292.708V292.708Z" fill="#E18D63"/>
<path d="M502.001 292.708C502.001 292.708 508.948 271.086 522.436 278.329C535.915 285.571 528.747 369.504 509.138 379.214C489.519 388.924 484.73 362.703 484.73 362.703L502.001 292.708Z" fill="#E18D63"/>
<path d="M507.231 288.281C505.7 181.389 458.029 132.721 378.655 132.442C299.274 132.721 251.604 181.389 250.071 288.281C249.528 325.995 257.177 374.474 265.199 403.272C276.222 442.853 329.252 474.94 357.54 489.218C364.487 492.727 370.234 492.656 378.655 492.656C387.067 492.656 392.818 492.727 399.769 489.218C428.052 474.94 481.076 442.853 492.106 403.272C500.125 374.474 507.774 325.995 507.231 288.281V288.281Z" fill="#F3A981"/>
<path d="M380.209 407.867H334.882C344.122 443.533 378.721 439.971 378.721 439.971C378.721 439.971 412.119 443.533 425.54 407.867H380.209Z" fill="#E97F5B"/>
<path d="M380.208 405.316L337.734 408.741C337.734 408.741 346.909 424.382 380.208 424.382C413.116 424.382 422.685 408.741 422.685 408.741L380.208 405.316Z" fill="#E4ECF1"/>
<path d="M381.802 378.499C381.802 378.499 391.596 363.484 401.248 373.088C401.248 373.088 401.38 377.391 392.628 376.623C392.628 376.623 388.81 374.928 381.802 378.499V378.499Z" fill="#CD6E46"/>
<path d="M377.295 378.371C377.295 378.371 366.707 362.769 357.54 371.834C357.54 371.834 357.629 376.133 366.354 375.864C366.354 375.864 370.088 374.39 377.295 378.371Z" fill="#CD6E46"/>
<path d="M485.163 563.887C471.984 556.556 462.526 548.978 458.818 541.58C448.68 521.331 446.544 497.114 446.734 462.079C438.476 455.432 429.208 449.902 419.18 445.726L378.655 458.596L333.408 444.23C325.271 447.284 317.601 451.217 310.517 455.909C310.973 494.307 309.207 520.161 298.482 541.58C294.09 550.346 281.639 559.358 264.491 567.912C275.578 616.311 320.573 652.533 374.405 652.533C429.72 652.533 475.714 614.29 485.163 563.887V563.887Z" fill="#E18D63"/>
<path d="M455.438 533.919C446.35 510.434 446.107 481.137 447.14 436.846L378.655 458.596L310.162 436.846C310.84 465.844 310.969 488.406 308.427 507.128C340.823 533.539 413.2 582.547 455.438 533.919V533.919Z" fill="#CD7652"/>
<path d="M257.749 292.708C257.749 292.708 250.797 271.086 237.313 278.329C223.834 285.571 230.999 369.504 250.612 379.214C270.225 388.924 275.018 362.703 275.018 362.703L257.749 292.708V292.708Z" fill="#E18D63"/>
<path d="M502.001 292.708C502.001 292.708 508.948 271.086 522.436 278.329C535.915 285.571 528.747 369.504 509.138 379.214C489.519 388.924 484.73 362.703 484.73 362.703L502.001 292.708Z" fill="#E18D63"/>
<path d="M507.231 288.281C505.7 181.389 458.029 132.721 378.655 132.442C299.274 132.721 251.604 181.389 250.071 288.281C249.528 325.995 257.177 374.474 265.199 403.272C276.222 442.853 329.252 474.94 357.54 489.218C364.487 492.727 370.234 492.656 378.655 492.656C387.067 492.656 392.818 492.727 399.769 489.218C428.052 474.94 481.076 442.853 492.106 403.272C500.125 374.474 507.774 325.995 507.231 288.281V288.281Z" fill="#F3A981"/>
<path d="M380.209 407.867H334.882C344.122 443.533 378.721 439.971 378.721 439.971C378.721 439.971 412.119 443.533 425.54 407.867H380.209Z" fill="#E97F5B"/>
<path d="M380.208 405.316L337.734 408.741C337.734 408.741 346.909 424.382 380.208 424.382C413.116 424.382 422.685 408.741 422.685 408.741L380.208 405.316Z" fill="#E4ECF1"/>
<path d="M381.802 378.499C381.802 378.499 391.596 363.484 401.248 373.088C401.248 373.088 401.38 377.391 392.628 376.623C392.628 376.623 388.81 374.928 381.802 378.499V378.499Z" fill="#CD6E46"/>
<path d="M377.295 378.371C377.295 378.371 366.707 362.769 357.54 371.834C357.54 371.834 357.629 376.133 366.354 375.864C366.354 375.864 370.088 374.39 377.295 378.371Z" fill="#CD6E46"/>
<path d="M395.179 399.234C390.108 397.363 382 400.39 380.209 401.635C378.421 400.39 370.313 397.363 365.242 399.234C360.171 401.096 334.882 407.867 334.882 407.867C348.899 412.854 380.209 411.919 380.209 411.919C380.209 411.919 411.523 412.854 425.54 407.867C425.54 407.867 400.25 401.096 395.179 399.234V399.234Z" fill="#CD6E46"/>
<path d="M291.91 302.833V302.828C295.595 296.848 305.689 292.54 317.608 292.54C329.527 292.54 339.621 296.848 343.299 302.828H343.304L343.299 302.833H343.304H343.299C339.621 308.813 329.527 313.116 317.608 313.116C305.689 313.116 295.595 308.813 291.91 302.833Z" fill="#FEF7F7"/>
<path d="M291.91 302.007C297.74 296.601 305.689 292.54 317.608 292.54C326.557 292.54 335.142 295.85 343.299 302.007C331.541 283.506 312.843 283.192 296.32 290.987C296.32 290.987 294.056 291.499 284.958 300.057L291.91 302.007V302.007Z" fill="#2A283E"/>
<path d="M289.24 291.463C289.24 291.463 289.417 291.318 289.774 291.048C292.275 289.146 303.311 281.48 317.509 281.489C325.284 281.493 334.015 283.762 342.921 290.545C343.195 290.757 343.586 290.704 343.795 290.431C344.004 290.153 343.95 289.764 343.677 289.557C334.566 282.61 325.527 280.24 317.509 280.244C300.76 280.257 288.498 290.47 288.444 290.506C288.179 290.726 288.143 291.119 288.363 291.384C288.583 291.649 288.976 291.684 289.24 291.463Z" fill="#E18D63"/>
<path d="M305.868 294.045C304.151 296.243 303.118 299.002 303.118 302.007C303.118 306.103 305.02 309.749 307.988 312.119C310.98 312.759 314.216 313.116 317.608 313.116C319.556 313.116 321.448 312.993 323.279 312.776C326.742 310.45 329.026 306.496 329.026 302.007C329.026 298.609 327.706 295.524 325.563 293.22C323.045 292.783 320.381 292.54 317.608 292.54C313.397 292.54 309.42 293.088 305.868 294.045V294.045Z" fill="#2A283E"/>
<path d="M404.832 264.955C404.832 264.955 405.993 277.146 416.678 274.211C431.64 270.106 461.303 266.112 481.818 274.211C484.369 275.217 460.972 234.873 404.832 264.955Z" fill="#2A283E"/>
<path d="M352.346 264.955C352.346 264.955 351.185 277.146 340.503 274.211C325.54 270.106 295.874 266.112 275.359 274.211C272.813 275.217 296.209 234.873 352.346 264.955Z" fill="#2A283E"/>
<path d="M465.39 302.833V302.828C461.709 296.848 451.611 292.54 439.699 292.54C427.778 292.54 417.68 296.848 413.999 302.828V302.833C417.68 308.813 427.778 313.116 439.699 313.116C451.611 313.116 461.709 308.813 465.39 302.833Z" fill="#FEF7F7"/>
<path d="M465.39 302.007C459.56 296.601 451.611 292.54 439.699 292.54C430.748 292.54 422.164 295.85 413.999 302.007C425.757 283.506 444.461 283.192 460.977 290.987C460.977 290.987 463.241 291.499 472.351 300.057L465.39 302.007Z" fill="#2A283E"/>
<path d="M468.859 290.506C468.806 290.47 456.545 280.257 439.792 280.244C431.772 280.24 422.733 282.61 413.624 289.557C413.346 289.764 413.293 290.153 413.504 290.431C413.712 290.704 414.105 290.757 414.378 290.55C423.285 283.762 432.019 281.493 439.792 281.489C447.908 281.489 454.988 283.982 460.032 286.485C462.557 287.734 464.569 288.983 465.951 289.919C466.639 290.386 467.173 290.775 467.527 291.048C467.884 291.318 468.061 291.463 468.061 291.463C468.325 291.684 468.718 291.649 468.939 291.384C469.159 291.119 469.124 290.726 468.859 290.506V290.506Z" fill="#E18D63"/>
<path d="M451.435 294.045C453.152 296.243 454.184 299.002 454.184 302.007C454.184 306.103 452.282 309.749 449.316 312.119C446.324 312.759 443.089 313.116 439.699 313.116C437.748 313.116 435.859 312.993 434.023 312.776C430.559 310.45 428.281 306.496 428.281 302.007C428.281 298.609 429.596 295.524 431.737 293.22C434.257 292.783 436.927 292.54 439.699 292.54C443.905 292.54 447.882 293.088 451.435 294.045V294.045Z" fill="#2A283E"/>
<path d="M381.802 123.955C288.842 123.955 248.87 169.958 247.337 276.846C247.272 281.255 250.061 297.25 250.211 301.906C263.566 294.111 264.599 268.473 266.642 239.304C269.855 193.341 313.759 168.806 334.882 174.385C353.612 179.337 372.012 185.441 413.999 172.977C464.583 157.953 477.144 209.949 482.003 241.118C486.624 270.733 505.254 299.019 507.099 301.769C507.244 297.161 511.084 281.211 511.018 276.846C509.486 169.958 472.351 123.955 381.802 123.955Z" fill="#2A283E"/>
<path d="M504.08 573.186C502.906 572.665 501.745 572.149 500.602 571.624C487.498 628.965 436.08 671.873 374.828 671.873C314.662 671.873 263.987 630.474 249.786 574.665C248.636 575.15 247.472 575.64 246.3 576.125C261.096 633.281 313.109 675.616 374.828 675.616C437.598 675.616 490.327 631.82 504.08 573.186Z" fill="#A5B7BF"/>
<path d="M402.373 468.43C389.389 472.128 388.744 449.911 388.744 449.911H378.924H378.796H368.972C368.972 449.911 368.331 472.128 355.342 468.43C342.359 464.731 319.378 459.259 325.762 423.963C332.148 388.677 361.605 400.483 378.796 395.204H378.924C396.111 400.483 425.575 388.677 431.958 423.963C438.34 459.259 415.362 464.731 402.373 468.43V468.43ZM497.918 274.665C500.474 290.726 485.15 346.708 471.508 365.819C457.865 384.938 468.979 403.224 467.531 414.849C466.079 426.475 450.786 427.953 450.786 427.953C446.002 427.953 447.277 396.471 438.98 389.617C430.682 382.754 403.234 386.496 396.848 387.119C390.466 387.745 378.924 384.007 378.924 384.007H378.796C378.796 384.007 367.255 387.745 360.873 387.119C354.486 386.496 327.041 382.754 318.74 389.617C310.444 396.471 311.718 427.953 306.93 427.953C306.93 427.953 291.639 426.475 290.19 414.849C288.74 403.224 299.855 384.938 286.211 365.819C272.569 346.708 257.247 290.726 259.8 274.665L250.044 298.913C250.044 298.913 254.268 408.811 265.759 430.535C277.25 452.263 353.948 500.887 378.796 502.132H378.924C403.772 500.887 480.471 452.263 491.96 430.535C503.453 408.811 507.099 301.769 507.099 301.769L497.918 274.665V274.665Z" fill="#2A283E"/>
</svg>
